HIERARCHY
ROOT Hips
{
  OFFSET 0.00289929 105.609 0.00539201
  CHANNELS 6 Xposition Yposition Zposition Zrotation Xrotation Yrotation
  JOINT LeftUpLeg
  {
    OFFSET 11.7847 -9.5453 1.41356
    CHANNELS 3 Zrotation Xrotation Yrotation
    JOINT LeftLeg
    {
      OFFSET 2.3278 -43.7578 1.59467
      CHANNELS 3 Zrotation Xrotation Yrotation
      JOINT LeftFoot
      {
        OFFSET 2.90255 -43.4592 -3.97108
        CHANNELS 3 Zrotation Xrotation Yrotation
        JOINT LeftFootHeel
        {
          OFFSET 1.05455 -6.08588 -5.40969
          CHANNELS 3 Zrotation Xrotation Yrotation
          End Site
          {
            OFFSET 0.237008 0 16.8796
          }
        }
      }
    }
  }
  JOINT RightUpLeg
  {
    OFFSET -11.7847 -9.5453 1.41356
    CHANNELS 3 Zrotation Xrotation Yrotation
    JOINT RightLeg
    {
      OFFSET -2.3278 -43.7578 1.59467
      CHANNELS 3 Zrotation Xrotation Yrotation
      JOINT RightFoot
      {
        OFFSET -2.90255 -43.4592 -3.97108
        CHANNELS 3 Zrotation Xrotation Yrotation
        JOINT RightFootHeel
        {
          OFFSET -1.05455 -6.08588 -5.40969
          CHANNELS 3 Zrotation Xrotation Yrotation
          End Site
          {
            OFFSET -0.237008 0 16.8796
          }
        }
      }
    }
  }
  JOINT Spine
  {
    OFFSET 0 10.6178 -0.495271
    CHANNELS 3 Zrotation Xrotation Yrotation
    JOINT Spine1
    {
      OFFSET 0 17.4697 -0.134436
      CHANNELS 3 Zrotation Xrotation Yrotation
      JOINT LeftShoulder
      {
        OFFSET 7.056 13.668 -0.403456
        CHANNELS 3 Zrotation Xrotation Yrotation
        JOINT LeftArm
        {
          OFFSET 11.8222 -0.144197 0.096185
          CHANNELS 3 Zrotation Xrotation Yrotation
          JOINT LeftForeArm
          {
            OFFSET 3.82891 -31.027 -0.436703
            CHANNELS 3 Zrotation Xrotation Yrotation
            JOINT LeftHand
            {
              OFFSET 1.15427 -26.3572 5.8811
              CHANNELS 3 Zrotation Xrotation Yrotation
              End Site
              {
                OFFSET -0.489854 -9.00594 2.03635
              }
            }
          }
        }
      }
      JOINT RightShoulder
      {
        OFFSET -7.056 13.668 -0.403456
        CHANNELS 3 Zrotation Xrotation Yrotation
        JOINT RightArm
        {
          OFFSET -11.8222 -0.144197 0.096185
          CHANNELS 3 Zrotation Xrotation Yrotation
          JOINT RightForeArm
          {
            OFFSET -3.82891 -31.027 -0.436703
            CHANNELS 3 Zrotation Xrotation Yrotation
            JOINT RightHand
            {
              OFFSET -1.15427 -26.3572 5.8811
              CHANNELS 3 Zrotation Xrotation Yrotation
              End Site
              {
                OFFSET 0.489854 -9.00594 2.03635
              }
            }
          }
        }
      }
      JOINT Neck
      {
        OFFSET 0 14.1859 -0.40331
        CHANNELS 3 Zrotation Xrotation Yrotation
        JOINT Head
        {
          OFFSET 0 13.9091 2.58427
          CHANNELS 3 Zrotation Xrotation Yrotation
          End Site
          {
            OFFSET 0 20.1079 -0.354832
          }
        }
      }
    }
  }
}
MOTION
Frames:	15
Frame Time:	0.0166667
-6.73895e-007 105.413 3.70104e-009 -0.174644 0.31638 -0.01419 0.281598 -0.283496 -0.343521 -0.0624927 0.0944493 0.174449 -0.0551682 -0.118395 0.184439 -0 0 0 0.239267 -0.304204 -0.242041 0.0956747 -0.208004 0.232423 -0.145792 0.19861 0.0259046 -0 0 0 -0.0634648 -0.149147 -0.153042 -0.0634647 -0.149147 -0.153026 0.25489 0.208129 -0.0838542 -0.0879803 -0.526382 0.026836 0.139943 0.242907 0.120401 -0.0938125 -0.00422035 -0.019303 -0.173751 0.137246 0.010688 0.3944 -0.131145 -0.186014 0.138545 0.107512 -0.428401 -0.038108 -0.134797 -0.0853791 0.366154 0.089802 -0.00311358 1e-006 1e-006 -2e-006 
-0.0135577 105.413 0.00467103 -0.180282 0.31638 -0.031782 0.299766 -0.283495 -0.371087 -0.0625713 0.105051 0.199671 -0.0620908 -0.131125 0.204301 -0 0 0 0.239361 -0.304204 -0.224402 0.0956746 -0.208004 0.232405 -0.145792 0.19861 0.0259046 -0 0 0 -0.0634418 -0.149147 -0.144235 -0.0634418 -0.149147 -0.144234 0.267401 0.208129 -0.101237 -0.0879841 -0.518338 0.026836 0.135279 0.261654 0.142349 -0.083438 -0.026481 -0.019303 -0.173751 0.137246 0.010688 0.394329 -0.131145 -0.216812 0.138648 0.125084 -0.415164 -0.024272 -0.152181 -0.104719 0.366154 0.089802 -0.00311358 1e-006 1e-006 -2e-006 
-0.0304907 105.413 0.017876 -0.186387 0.31638 -0.05084 0.316319 -0.283495 -0.385354 -0.0626409 0.129442 0.192853 -0.0733178 -0.15697 0.244567 -0 0 0 0.239364 -0.304204 -0.223878 0.0957412 -0.208003 0.250749 -0.145792 0.19861 0.0259883 -0 0 0 -0.060353 -0.149147 -0.134694 -0.060353 -0.149147 -0.134693 0.280113 0.208129 -0.118889 -0.0879874 -0.511228 0.026836 0.125836 0.26087 0.16137 -0.053785 -0.027188 -0.0245 -0.173751 0.137246 0.010688 0.394257 -0.131145 -0.248224 0.154997 0.11922 -0.448534 -0.033467 -0.145619 -0.085401 0.362699 0.0989071 -0.021549 1e-006 1e-006 -2e-006 
-0.0466217 105.413 0.029221 -0.192756 0.31638 -0.070709 0.333039 -0.283494 -0.398565 -0.0626991 0.151519 0.186786 -0.0837371 -0.180512 0.283829 -0 0 0 0.243624 -0.304204 -0.224655 0.0958055 -0.208003 0.268444 -0.145826 0.19861 0.0357814 -0 0 0 -0.053635 -0.153614 -0.124933 -0.053634 -0.153615 -0.124932 0.286679 0.210367 -0.137401 -0.0879908 -0.504022 0.0268359 0.116852 0.259826 0.179607 -0.0205002 -0.0288011 -0.0303467 -0.18077 0.14625 0.010688 0.394179 -0.131145 -0.282312 0.175697 0.112362 -0.495174 -0.037825 -0.135135 -0.0954801 0.352829 0.132222 -0.04383 1e-006 1e-006 -2e-006 
-0.0554907 105.413 0.024818 -0.199312 0.31638 -0.091136 0.348465 -0.283494 -0.406662 -0.0626938 0.15263 0.183406 -0.0867436 -0.182887 0.315855 -0 0 0 0.248986 -0.304204 -0.224991 0.0958435 -0.208003 0.278916 -0.145838 0.19861 0.0390775 -0 0 0 -0.043425 -0.162461 -0.115051 -0.043425 -0.162462 -0.115051 0.282871 0.221118 -0.15616 -0.0879944 -0.496381 0.0268306 0.107487 0.258576 0.197814 0.0108888 -0.0308275 -0.035833 -0.1946 0.163994 0.010688 0.394099 -0.131144 -0.317302 0.195629 0.10556 -0.538615 -0.044209 -0.125889 -0.094542 0.327963 0.189062 -0.062773 1e-006 1e-006 -2e-006 
-0.0579397 105.413 0.016059 -0.205872 0.316379 -0.111565 0.3582 -0.283495 -0.393036 -0.0626379 0.153104 0.161919 -0.0872826 -0.183944 0.344452 -0 0 0 0.253635 -0.304204 -0.222702 0.0959087 -0.208003 0.296867 -0.145843 0.19861 0.0406395 -0 0 0 -0.033187 -0.171691 -0.107819 -0.033187 -0.171691 -0.107818 0.279973 0.236162 -0.159994 -0.0898372 -0.49256 0.0177181 0.0984083 0.257879 0.216995 0.0396025 -0.0328856 -0.0408423 -0.203531 0.181886 0.016852 0.391778 -0.127633 -0.353255 0.21331 0.099056 -0.573526 -0.053087 -0.118581 -0.078614 0.303462 0.247653 -0.07863 1e-006 1e-006 -2e-006 
-0.059107 105.413 0.0111209 -0.211879 0.316379 -0.130268 0.36463 -0.283495 -0.374345 -0.0626206 0.153395 0.155185 -0.088571 -0.184759 0.351279 -0 0 0 0.25974 -0.304205 -0.20395 0.0959086 -0.208003 0.296847 -0.145848 0.19861 0.0420348 -0 0 0 -0.027701 -0.176347 -0.109886 -0.027701 -0.176346 -0.109884 0.290268 0.238028 -0.158147 -0.0999646 -0.484715 0.029456 0.0933921 0.258494 0.226455 0.0671824 -0.0345938 -0.045697 -0.184826 0.188244 0.040038 0.371196 -0.121345 -0.394881 0.223488 0.093431 -0.578404 -0.055913 -0.113335 -0.082019 0.286741 0.298737 -0.076372 1e-006 1e-006 -2e-006 
-0.0601421 105.413 0.00890082 -0.216811 0.316379 -0.145608 0.367682 -0.283496 -0.359007 -0.0626124 0.153518 0.151968 -0.0902118 -0.185347 0.353657 -0 0 0 0.264751 -0.304205 -0.188566 0.0959085 -0.208003 0.296838 -0.145852 0.19861 0.0432636 -0 0 0 -0.0250895 -0.17913 -0.114724 -0.0250888 -0.179129 -0.114725 0.304986 0.235048 -0.15435 -0.105187 -0.479612 0.0321253 0.0828127 0.262134 0.24585 0.092594 -0.0360897 -0.0502029 -0.158177 0.191202 0.065421 0.346753 -0.11428 -0.439846 0.223087 0.089469 -0.544216 -0.047359 -0.109186 -0.126597 0.271791 0.347393 -0.069384 1e-006 1e-006 -2e-006 
-0.0610509 105.413 0.00710597 -0.219559 0.316379 -0.148887 0.370054 -0.283496 -0.355741 -0.0626052 0.153484 0.149328 -0.0919469 -0.185722 0.354561 -0 0 0 0.267185 -0.304205 -0.185259 0.0959085 -0.208003 0.296832 -0.145856 0.19861 0.0443262 -0 0 0 -0.022527 -0.180926 -0.126012 -0.0238538 -0.180927 -0.12604 0.319184 0.223902 -0.153946 -0.103875 -0.480233 0.029149 0.0691041 0.275988 0.26935 0.115845 -0.0376343 -0.0541768 -0.130141 0.194115 0.0915869 0.322595 -0.109333 -0.461635 0.222916 0.0868347 -0.555072 -0.0466455 -0.10738 -0.142157 0.259807 0.390438 -0.058916 1e-006 1e-006 -2e-006 
-0.0618394 105.413 0.00571167 -0.221152 0.316379 -0.150389 0.371338 -0.283496 -0.353913 -0.062596 0.153309 0.146047 -0.0935266 -0.185901 0.354335 -0 0 0 0.269506 -0.304205 -0.183848 0.0959085 -0.208003 0.29683 -0.145859 0.19861 0.0452229 -0 0 0 -0.020502 -0.182272 -0.134703 -0.0226881 -0.182274 -0.134756 0.32783 0.20916 -0.162111 -0.0942408 -0.469751 0.0285182 0.0529126 0.278402 0.299633 0.131207 -0.0390303 -0.056913 -0.104718 0.196359 0.0969171 0.301122 -0.107864 -0.481267 0.222483 0.0845765 -0.531825 -0.0420091 -0.105923 -0.179394 0.245973 0.41959 -0.037286 1e-006 1e-006 -2e-006 
-0.0625133 105.413 0.00469298 -0.222302 0.316379 -0.151549 0.372444 -0.283496 -0.352712 -0.0625884 0.153004 0.143495 -0.0947014 -0.185899 0.353325 -0 0 0 0.271759 -0.304205 -0.182888 0.0959085 -0.208003 0.29683 -0.145861 0.19861 0.0459541 -0 0 0 -0.0192365 -0.183419 -0.138523 -0.0215884 -0.183422 -0.138597 0.324348 0.186333 -0.190287 -0.0791734 -0.470851 0.0400747 0.0433416 0.295649 0.316405 0.133528 -0.0400807 -0.073788 -0.0931387 0.197697 0.0993897 0.290233 -0.105693 -0.490458 0.221932 0.0821164 -0.522043 -0.0375036 -0.104853 -0.188009 0.235439 0.435994 -0.03031 1e-006 1e-006 -2e-006 
-0.0630786 105.413 0.00402535 -0.223243 0.316379 -0.152397 0.373385 -0.283496 -0.351786 -0.0625816 0.152582 0.141343 -0.0955538 -0.185731 0.351875 -0 0 0 0.27402 -0.304205 -0.182321 0.0959085 -0.208003 0.296832 -0.145863 0.19861 0.04652 -0 0 0 -0.0181654 -0.184253 -0.139956 -0.0205708 -0.184254 -0.141588 0.319024 0.16299 -0.217859 -0.0713338 -0.47575 0.0685509 0.0422305 0.318444 0.315474 0.130617 -0.0405886 -0.0958792 -0.0698137 0.198862 0.101465 0.269485 -0.100093 -0.524821 0.221298 0.080777 -0.488085 -0.0374973 -0.104206 -0.187978 0.230779 0.435994 -0.0271504 1e-006 1e-006 -2e-006 
-0.0635411 105.413 0.00368385 -0.223997 0.316379 -0.152968 0.374172 -0.283496 -0.350933 -0.0625762 0.152058 0.139817 -0.0963342 -0.185413 0.350331 -0 0 0 0.276018 -0.304205 -0.182087 0.0959085 -0.208003 0.296835 -0.145865 0.19861 0.046921 -0 0 0 -0.0172769 -0.185257 -0.140756 -0.0196377 -0.185257 -0.142927 0.311278 0.140824 -0.242131 -0.0612155 -0.481563 0.0935678 0.0420974 0.341944 0.313309 0.125933 -0.0403568 -0.101611 -0.0484797 0.199866 0.103167 0.2504 -0.0950289 -0.554709 0.220692 0.0799033 -0.458543 -0.0416059 -0.10402 -0.167981 0.228643 0.436403 -0.0246348 1e-006 1e-006 -2e-006 
-0.0639068 105.413 0.00364381 -0.224583 0.316379 -0.153293 0.374815 -0.283496 -0.350141 -0.0625718 0.151443 0.138705 -0.0970446 -0.18496 0.349038 -0 0 0 0.27748 -0.304205 -0.182126 0.0959086 -0.208003 0.296839 -0.145866 0.19861 0.0471572 -0 0 0 -0.0165524 -0.186355 -0.141023 -0.0187962 -0.186353 -0.143737 0.301125 0.128736 -0.251164 -0.0489767 -0.494943 0.103287 0.0398497 0.357457 0.310001 0.124433 -0.0380618 -0.10109 -0.0436724 0.200716 0.104522 0.247531 -0.0925441 -0.580037 0.220196 0.0793558 -0.437757 -0.0554263 -0.104334 -0.103805 0.226767 0.436995 -0.0227109 1e-006 1e-006 -2e-006 
-0.0641816 105.413 0.00388033 -0.225023 0.316379 -0.153404 0.375327 -0.283496 -0.3494 -0.0625674 0.150752 0.137651 -0.0976871 -0.184388 0.34834 -0 0 0 0.278592 -0.304205 -0.18238 0.0959086 -0.208003 0.296843 -0.145866 0.19861 0.0472292 -0 0 0 -0.0159734 -0.187507 -0.140854 -0.0180503 -0.187503 -0.144126 0.301125 0.128736 -0.251164 -0.0475505 -0.51126 0.10381 0.0323834 0.34155 0.3045 0.13095 -0.031136 -0.0980558 -0.0436738 0.201425 0.105556 0.246536 -0.0904432 -0.585496 0.219899 0.0789949 -0.435905 -0.0647255 -0.105183 -0.061316 0.225142 0.437651 -0.0213265 1e-006 1e-006 -2e-006 
